<?xml version="1.0" encoding="UTF-8" standalone="no"?>
<!-- Created with Inkscape (http://www.inkscape.org/) -->

<svg
   xmlns:dc="http://purl.org/dc/elements/1.1/"
   xmlns:cc="http://creativecommons.org/ns#"
   xmlns:rdf="http://www.w3.org/1999/02/22-rdf-syntax-ns#"
   xmlns:svg="http://www.w3.org/2000/svg"
   xmlns="http://www.w3.org/2000/svg"
   xmlns:sodipodi="http://sodipodi.sourceforge.net/DTD/sodipodi-0.dtd"
   xmlns:inkscape="http://www.inkscape.org/namespaces/inkscape"
   width="108.78477mm"
   height="51.872368mm"
   viewBox="0 0 385.45784 183.79973"
   id="svg2"
   version="1.1"
   inkscape:version="0.91 r13725"
   sodipodi:docname="frankenstack.svg">
  <defs
     id="defs4">
    <filter
       style="color-interpolation-filters:sRGB"
       inkscape:label="Feather"
       id="filter4270">
      <feGaussianBlur
         stdDeviation="5"
         result="blur"
         id="feGaussianBlur4272" />
      <feComposite
         in="SourceGraphic"
         in2="blur"
         operator="atop"
         result="composite1"
         id="feComposite4274" />
      <feComposite
         in2="composite1"
         operator="in"
         result="composite2"
         id="feComposite4276" />
      <feComposite
         in2="composite2"
         operator="in"
         result="composite3"
         id="feComposite4278" />
    </filter>
  </defs>
  <sodipodi:namedview
     id="base"
     pagecolor="#ffffff"
     bordercolor="#666666"
     borderopacity="1.0"
     inkscape:pageopacity="0.0"
     inkscape:pageshadow="2"
     inkscape:zoom="1.979899"
     inkscape:cx="182.18587"
     inkscape:cy="96.056064"
     inkscape:document-units="px"
     inkscape:current-layer="layer1"
     showgrid="false"
     inkscape:window-width="1440"
     inkscape:window-height="851"
     inkscape:window-x="0"
     inkscape:window-y="23"
     inkscape:window-maximized="1"
     fit-margin-top="0"
     fit-margin-left="0"
     fit-margin-right="0"
     fit-margin-bottom="0" />
  <metadata
     id="metadata7">
    <rdf:RDF>
      <cc:Work
         rdf:about="">
        <dc:format>image/svg+xml</dc:format>
        <dc:type
           rdf:resource="http://purl.org/dc/dcmitype/StillImage" />
        <dc:title></dc:title>
      </cc:Work>
    </rdf:RDF>
  </metadata>
  <g
     inkscape:label="Layer 1"
     inkscape:groupmode="layer"
     id="layer1"
     transform="translate(11.637112,-5.3722474)">
    <path
       inkscape:connector-curvature="0"
       id="path4268"
       d="m 169.21094,31.476562 a 52.089531,52.089531 0 0 0 -34.47852,13.441407 60.104076,60.104076 0 0 0 -9.6582,-0.789063 60.104076,60.104076 0 0 0 -59.654298,59.427734 41.416256,41.416256 0 0 0 -11.302734,19.24414 l -6.357422,0 0,-7.90039 -27.275391,0 0,45.45703 27.275391,0 0,-8.08008 9.505859,0 a 41.416256,41.416256 0 0 0 36.917969,22.5586 41.416256,41.416256 0 0 0 4.923828,-0.35742 l 148.742188,0 c 0.60191,0 1.1906,-0.0543 1.77148,-0.13477 a 57.096478,57.617336 0 0 0 0.9043,0.043 57.096478,57.617336 0 0 0 44.83594,-22.13086 l 19.0625,0 0,8.08008 27.27539,0 0,-45.45703 -27.27539,0 0,7.90039 -7.31055,0 a 57.096478,57.617336 0 0 0 0.37891,-6.00977 l -0.002,-0.51953 a 57.096478,57.617336 0 0 0 -43.36914,-55.333984 43.073166,43.073166 0 0 0 -37.7539,-21.917969 43.073166,43.073166 0 0 0 -21.75,6.123047 52.089531,52.089531 0 0 0 -35.40625,-13.644532 z"
       style="opacity:0.7;fill:#000000;fill-opacity:1;stroke:#000000;stroke-width:8;stroke-linejoin:miter;stroke-miterlimit:4;stroke-dasharray:none;stroke-dashoffset:0;stroke-opacity:1;filter:url(#filter4270)" />
    <path
       style="opacity:1;fill:#0c7600;fill-opacity:1;stroke:#000000;stroke-width:8;stroke-linejoin:miter;stroke-miterlimit:4;stroke-dasharray:none;stroke-dashoffset:0;stroke-opacity:1"
       d="m 155.21094,9.476562 a 52.089531,52.089531 0 0 0 -34.47852,13.441407 60.104076,60.104076 0 0 0 -9.6582,-0.789063 60.104076,60.104076 0 0 0 -59.654298,59.427735 41.416256,41.416256 0 0 0 -11.302734,19.244139 l -6.357422,0 0,-7.90039 -27.275391,0 0,45.45703 27.275391,0 0,-8.08008 9.505859,0 a 41.416256,41.416256 0 0 0 36.917969,22.5586 41.416256,41.416256 0 0 0 4.923828,-0.35742 l 148.742188,0 c 0.60191,0 1.1906,-0.0543 1.77148,-0.13477 a 57.096478,57.617336 0 0 0 0.9043,0.043 57.096478,57.617336 0 0 0 44.83594,-22.13086 l 19.0625,0 0,8.08008 27.27539,0 0,-45.45703 -27.27539,0 0,7.90039 -7.31055,0 a 57.096478,57.617336 0 0 0 0.37891,-6.00977 l -0.002,-0.51953 a 57.096478,57.617336 0 0 0 -43.36914,-55.333984 43.073166,43.073166 0 0 0 -37.7539,-21.917969 43.073166,43.073166 0 0 0 -21.75,6.123047 A 52.089531,52.089531 0 0 0 155.2109,9.476592 Z"
       id="path4140"
       inkscape:connector-curvature="0" />
    <text
       xml:space="preserve"
       style="font-style:normal;font-weight:normal;font-size:11.25px;line-height:125%;font-family:sans-serif;letter-spacing:0px;word-spacing:0px;fill:#000000;fill-opacity:1;stroke:none;stroke-width:1px;stroke-linecap:butt;stroke-linejoin:miter;stroke-opacity:1"
       x="118.57143"
       y="305.21936"
       id="text4217"
       sodipodi:linespacing="125%"><tspan
         sodipodi:role="line"
         id="tspan4219"
         x="118.57143"
         y="305.21936" /></text>
    <g
       style="font-style:normal;font-variant:normal;font-weight:normal;font-stretch:normal;font-size:11.25px;line-height:125%;font-family:'Gurmukhi MN';-inkscape-font-specification:'Gurmukhi MN';letter-spacing:0px;word-spacing:0px;fill:#000000;fill-opacity:1;stroke:none;stroke-width:1px;stroke-linecap:butt;stroke-linejoin:miter;stroke-opacity:1"
       id="text4224"
       transform="matrix(2.6321867,0,0,8.7655193,-140.1817,-451.30224)">
      <path
         d="m 87.402324,58.28364 0,0.495 -3.72375,0 0,2.73375 2.68875,0 0,0.495 -2.68875,0 0,3.92625 -1.29375,0 0,-7.65 5.0175,0 z"
         id="path4229"
         inkscape:connector-curvature="0" />
      <path
         d="m 88.157304,60.03864 1.17,0 0,1.11375 q 0.16875,-0.2475 0.36,-0.4725 0.2025,-0.225 0.41625,-0.39375 0.21375,-0.16875 0.43875,-0.27 0.225,-0.10125 0.46125,-0.10125 0.39375,0 0.6525,0.21375 0.27,0.2025 0.27,0.495 0,0.2925 -0.18,0.43875 -0.18,0.135 -0.50625,0.135 -0.19125,0 -0.315,-0.03375 -0.1125,-0.045 -0.21375,-0.09 -0.09,-0.05625 -0.19125,-0.10125 -0.10125,-0.045 -0.2475,-0.045 -0.23625,0 -0.4725,0.27 -0.225,0.25875 -0.4725,0.6525 l 0,4.08375 -1.17,0 0,-5.895 z"
         id="path4231"
         inkscape:connector-curvature="0" />
      <path
         d="m 97.004199,65.93364 -1.17,0 0,-0.81 q -0.2025,0.1575 -0.405,0.32625 -0.2025,0.16875 -0.43875,0.30375 -0.23625,0.135 -0.5175,0.21375 -0.28125,0.09 -0.6525,0.09 -0.70875,0 -1.11375,-0.41625 -0.405,-0.41625 -0.405,-1.0575 0,-0.57375 0.32625,-0.9675 0.3375,-0.405 0.84375,-0.68625 0.5175,-0.28125 1.13625,-0.4725 0.63,-0.19125 1.22625,-0.3375 l 0,-0.37125 q 0,-0.81 -0.30375,-1.125 -0.30375,-0.315 -0.84375,-0.315 -0.2925,0 -0.48375,0.07875 -0.18,0.07875 -0.2925,0.2025 -0.10125,0.12375 -0.14625,0.28125 -0.03375,0.1575 -0.03375,0.32625 0,0.315 -0.12375,0.55125 -0.1125,0.23625 -0.46125,0.23625 -0.27,0 -0.45,-0.19125 -0.16875,-0.2025 -0.16875,-0.50625 0,-0.2925 0.19125,-0.54 0.19125,-0.2475 0.5175,-0.4275 0.32625,-0.19125 0.75375,-0.2925 0.43875,-0.1125 0.9225,-0.1125 0.57375,0 0.9675,0.1125 0.405,0.1125 0.6525,0.315 0.2475,0.2025 0.36,0.495 0.1125,0.2925 0.1125,0.64125 l 0,4.455 z m -1.17,-3.4425 q -0.3825,0.12375 -0.79875,0.30375 -0.41625,0.16875 -0.765,0.405 -0.34875,0.225 -0.57375,0.495 -0.225,0.27 -0.225,0.585 0,0.21375 0.07875,0.41625 0.07875,0.19125 0.21375,0.3375 0.135,0.14625 0.30375,0.23625 0.16875,0.07875 0.36,0.07875 0.39375,0 0.72,-0.19125 0.32625,-0.2025 0.68625,-0.46125 l 0,-2.205 z"
         id="path4233"
         inkscape:connector-curvature="0" />
      <path
         d="m 98.572343,60.03864 1.17,0 0,1.06875 q 0.539997,-0.6075 1.113747,-0.9 0.57375,-0.2925 1.17,-0.2925 0.30375,0 0.57375,0.14625 0.27,0.135 0.4725,0.3825 0.2025,0.23625 0.315,0.5625 0.12375,0.32625 0.12375,0.6975 l 0,4.23 -1.17,0 0,-4.03875 q 0,-0.585 -0.27,-0.8775 -0.25875,-0.30375 -0.675,-0.30375 -0.36,0 -0.81,0.23625 -0.45,0.225 -0.843747,0.6075 l 0,4.37625 -1.17,0 0,-5.895 z"
         id="path4235"
         inkscape:connector-curvature="0" />
      <path
         d="m 106.02652,62.41239 2.95875,-2.37375 0.765,0 -2.64375,2.1375 3.27375,3.7575 -1.54125,0 -2.8125,-3.22875 0,3.22875 -1.17,0 0,-8.58375 0.8325,-0.3375 0.3375,0 0,5.4 z"
         id="path4237"
         inkscape:connector-curvature="0" />
      <path
         d="m 113.06955,66.05739 q -0.59625,0 -1.125,-0.225 -0.5175,-0.225 -0.91125,-0.6075 -0.39375,-0.39375 -0.61875,-0.91125 -0.225,-0.5175 -0.225,-1.11375 0,-0.70875 0.2025,-1.305 0.21375,-0.6075 0.585,-1.04625 0.3825,-0.43875 0.91125,-0.68625 0.54,-0.2475 1.1925,-0.2475 0.585,0 1.06875,0.2025 0.48375,0.2025 0.8325,0.55125 0.34875,0.3375 0.54,0.7875 0.19125,0.45 0.19125,0.945 l -4.39875,0 q 0,0.59625 0.14625,1.1025 0.1575,0.50625 0.4275,0.8775 0.28125,0.37125 0.66375,0.585 0.3825,0.2025 0.84375,0.2025 0.3825,0 0.73125,-0.12375 0.36,-0.12375 0.64125,-0.32625 0.28125,-0.2025 0.48375,-0.46125 0.2025,-0.27 0.28125,-0.54 l 0.3375,0.14625 q -0.12375,0.46125 -0.405,0.86625 -0.28125,0.39375 -0.66375,0.68625 -0.3825,0.2925 -0.8325,0.4725 -0.43875,0.16875 -0.9,0.16875 z m 1.17,-4.12875 q 0,-0.3375 -0.12375,-0.61875 -0.1125,-0.2925 -0.32625,-0.50625 -0.2025,-0.21375 -0.48375,-0.32625 -0.27,-0.12375 -0.585,-0.12375 -0.27,0 -0.5175,0.12375 -0.23625,0.1125 -0.4275,0.32625 -0.18,0.21375 -0.30375,0.50625 -0.12375,0.28125 -0.1575,0.61875 l 2.925,0 z"
         id="path4239"
         inkscape:connector-curvature="0" />
      <path
         d="m 116.98543,60.03864 1.17,0 0,1.06875 q 0.54,-0.6075 1.11375,-0.9 0.57375,-0.2925 1.17,-0.2925 0.30375,0 0.57375,0.14625 0.27,0.135 0.4725,0.3825 0.2025,0.23625 0.315,0.5625 0.12375,0.32625 0.12375,0.6975 l 0,4.23 -1.17,0 0,-4.03875 q 0,-0.585 -0.27,-0.8775 -0.25875,-0.30375 -0.675,-0.30375 -0.36,0 -0.81,0.23625 -0.45,0.225 -0.84375,0.6075 l 0,4.37625 -1.17,0 0,-5.895 z"
         id="path4241"
         inkscape:connector-curvature="0" />
      <path
         d="m 125.15961,65.65239 q 0.48375,0 0.7875,-0.27 0.315,-0.27 0.315,-0.6075 0,-0.36 -0.23625,-0.59625 -0.23625,-0.23625 -0.585,-0.4275 -0.34875,-0.19125 -0.765,-0.37125 -0.405,-0.18 -0.75375,-0.41625 -0.34875,-0.23625 -0.585,-0.5625 -0.23625,-0.3375 -0.23625,-0.84375 0,-0.34875 0.14625,-0.6525 0.1575,-0.30375 0.41625,-0.5175 0.27,-0.225 0.64125,-0.34875 0.37125,-0.12375 0.81,-0.12375 0.2925,0 0.54,0.045 0.25875,0.03375 0.50625,0.1575 0.2475,0.1125 0.48375,0.32625 0.2475,0.21375 0.5175,0.5625 l -0.4275,0.3825 q -0.32625,-0.54 -0.7425,-0.81 -0.41625,-0.27 -0.88875,-0.27 -0.50625,0 -0.82125,0.225 -0.30375,0.225 -0.30375,0.55125 0,0.36 0.2475,0.59625 0.25875,0.23625 0.64125,0.4275 0.3825,0.18 0.82125,0.36 0.45,0.18 0.8325,0.41625 0.3825,0.23625 0.63,0.57375 0.25875,0.32625 0.25875,0.82125 0,0.37125 -0.14625,0.6975 -0.135,0.32625 -0.41625,0.57375 -0.28125,0.23625 -0.70875,0.37125 -0.41625,0.135 -0.97875,0.135 -0.25875,0 -0.54,-0.045 -0.27,-0.03375 -0.55125,-0.14625 -0.27,-0.12375 -0.55125,-0.3375 -0.27,-0.21375 -0.54,-0.5625 l 0.48375,-0.43875 q 0.4275,0.6075 0.81,0.86625 0.3825,0.25875 0.88875,0.25875 z"
         id="path4243"
         inkscape:connector-curvature="0" />
      <path
         d="m 131.74771,65.17989 q -0.23625,0.405 -0.63,0.64125 -0.3825,0.23625 -0.95625,0.23625 -0.59625,0 -0.8775,-0.37125 -0.27,-0.3825 -0.27,-1.00125 l 0,-4.15125 -1.02375,0 0,-0.2925 q 0.495,0 0.81,-0.18 0.315,-0.18 0.5175,-0.48375 0.2025,-0.30375 0.315,-0.70875 0.12375,-0.405 0.21375,-0.855 l 0.3375,0 0,2.025 1.31625,0 0,0.495 -1.31625,0 0,4.15125 q 0,0.25875 0.18,0.45 0.19125,0.18 0.45,0.18 0.2025,0 0.36,-0.09 0.1575,-0.10125 0.28125,-0.23625 l 0.2925,0.19125 z"
         id="path4245"
         inkscape:connector-curvature="0" />
      <path
         d="m 136.79668,65.93364 -1.17,0 0,-0.81 q -0.2025,0.1575 -0.405,0.32625 -0.2025,0.16875 -0.43875,0.30375 -0.23625,0.135 -0.5175,0.21375 -0.28125,0.09 -0.6525,0.09 -0.70875,0 -1.11375,-0.41625 -0.405,-0.41625 -0.405,-1.0575 0,-0.57375 0.32625,-0.9675 0.3375,-0.405 0.84375,-0.68625 0.5175,-0.28125 1.13625,-0.4725 0.63,-0.19125 1.22625,-0.3375 l 0,-0.37125 q 0,-0.81 -0.30375,-1.125 -0.30375,-0.315 -0.84375,-0.315 -0.2925,0 -0.48375,0.07875 -0.18,0.07875 -0.2925,0.2025 -0.10125,0.12375 -0.14625,0.28125 -0.0337,0.1575 -0.0337,0.32625 0,0.315 -0.12375,0.55125 -0.1125,0.23625 -0.46125,0.23625 -0.27,0 -0.45,-0.19125 -0.16875,-0.2025 -0.16875,-0.50625 0,-0.2925 0.19125,-0.54 0.19125,-0.2475 0.5175,-0.4275 0.32625,-0.19125 0.75375,-0.2925 0.43875,-0.1125 0.9225,-0.1125 0.57375,0 0.9675,0.1125 0.405,0.1125 0.6525,0.315 0.2475,0.2025 0.36,0.495 0.1125,0.2925 0.1125,0.64125 l 0,4.455 z m -1.17,-3.4425 q -0.3825,0.12375 -0.79875,0.30375 -0.41625,0.16875 -0.765,0.405 -0.34875,0.225 -0.57375,0.495 -0.225,0.27 -0.225,0.585 0,0.21375 0.0787,0.41625 0.0788,0.19125 0.21375,0.3375 0.135,0.14625 0.30375,0.23625 0.16875,0.07875 0.36,0.07875 0.39375,0 0.72,-0.19125 0.32625,-0.2025 0.68625,-0.46125 l 0,-2.205 z"
         id="path4247"
         inkscape:connector-curvature="0" />
      <path
         d="m 140.87357,66.05739 q -0.585,0 -1.09125,-0.225 -0.50625,-0.225 -0.88875,-0.61875 -0.37125,-0.405 -0.585,-0.93375 -0.21375,-0.52875 -0.21375,-1.13625 0,-0.675 0.23625,-1.26 0.2475,-0.585 0.6525,-1.02375 0.41625,-0.43875 0.9675,-0.68625 0.5625,-0.25875 1.20375,-0.25875 0.495,0 0.91125,0.1125 0.41625,0.10125 0.72,0.2925 0.30375,0.19125 0.4725,0.45 0.16875,0.2475 0.16875,0.55125 0,0.135 -0.0675,0.25875 -0.0675,0.1125 -0.18,0.2025 -0.1125,0.07875 -0.25875,0.135 -0.135,0.045 -0.28125,0.045 -0.315,0 -0.50625,-0.2025 -0.18,-0.2025 -0.18,-0.43875 0,-0.41625 -0.2025,-0.68625 -0.19125,-0.28125 -0.7875,-0.28125 -0.405,0 -0.72,0.1575 -0.315,0.1575 -0.54,0.43875 -0.21375,0.28125 -0.32625,0.6525 -0.1125,0.37125 -0.1125,0.7875 0,0.5625 0.14625,1.06875 0.14625,0.50625 0.41625,0.88875 0.27,0.37125 0.64125,0.59625 0.3825,0.225 0.855,0.225 0.405,0 0.70875,-0.12375 0.30375,-0.135 0.5175,-0.34875 0.225,-0.225 0.3825,-0.5175 0.16875,-0.2925 0.2925,-0.61875 l 0.34875,0.14625 q -0.2925,1.125 -0.99,1.74375 -0.68625,0.6075 -1.71,0.6075 z"
         id="path4249"
         inkscape:connector-curvature="0" />
      <path
         d="m 145.86295,62.41239 2.95875,-2.37375 0.765,0 -2.64375,2.1375 3.27375,3.7575 -1.54125,0 -2.8125,-3.22875 0,3.22875 -1.17,0 0,-8.58375 0.8325,-0.3375 0.3375,0 0,5.4 z"
         id="path4251"
         inkscape:connector-curvature="0" />
    </g>
    <rect
       style="opacity:1;fill:#000000;fill-opacity:1;stroke:none;stroke-width:8;stroke-linejoin:miter;stroke-miterlimit:4;stroke-dasharray:none;stroke-dashoffset:0;stroke-opacity:1"
       id="rect4272"
       width="52.527935"
       height="4.419425"
       x="76.730583"
       y="59.608788" />
  </g>
</svg>
